{
    "accessors" : [
        {
            "bufferView" : 0,
            "componentType" : 5123,
            "count" : 18579,
            "max" : [
                4131
            ],
            "min" : [
                0
            ],
            "type" : "SCALAR"
        },
        {
            "bufferView" : 1,
            "componentType" : 5126,
            "count" : 4132,
            "max" : [
                0.16947001218795776,
                0.009999999776482582,
                0.11726115643978119
            ],
            "min" : [
                -0.16920357942581177,
                -0.009999999776482582,
                -0.10470661520957947
            ],
            "type" : "VEC3"
        },
        {
            "bufferView" : 2,
            "componentType" : 5126,
            "count" : 4132,
            "max" : [
                1.0,
                1.0,
                0.999908447265625
            ],
            "min" : [
                -1.0,
                -1.0,
                -1.0
            ],
            "type" : "VEC3"
        }
    ],
    "asset" : {
        "generator" : "Khronos Blender glTF 2.0 exporter",
        "version" : "2.0"
    },
    "bufferViews" : [
        {
            "buffer" : 0,
            "byteLength" : 37158,
            "byteOffset" : 0,
            "target" : 34963
        },
        {
            "buffer" : 0,
            "byteLength" : 49584,
            "byteOffset" : 37160,
            "target" : 34962
        },
        {
            "buffer" : 0,
            "byteLength" : 49584,
            "byteOffset" : 86744,
            "target" : 34962
        }
    ],
    "buffers" : [
        {
            "byteLength" : 136328,
            "uri" : "bat12.bin"
        }
    ],
    "meshes" : [
        {
            "name" : "CUCurve.002",
            "primitives" : [
                {
                    "attributes" : {
                        "NORMAL" : 2,
                        "POSITION" : 1
                    },
                    "indices" : 0
                }
            ]
        }
    ],
    "nodes" : [
        {
            "mesh" : 0,
            "name" : "Curve"
        }
    ],
    "scene" : 0,
    "scenes" : [
        {
            "name" : "Scene",
            "nodes" : [
                0
            ]
        }
    ]
}
