{
    "accessors" : [
        {
            "bufferView" : 0,
            "componentType" : 5123,
            "count" : 54192,
            "max" : [
                13559
            ],
            "min" : [
                0
            ],
            "type" : "SCALAR"
        },
        {
            "bufferView" : 1,
            "componentType" : 5126,
            "count" : 13560,
            "max" : [
                0.1689896583557129,
                0.009999999776482582,
                0.06678567826747894
            ],
            "min" : [
                -0.16966137290000916,
                -0.009999999776482582,
                -0.06512521207332611
            ],
            "type" : "VEC3"
        },
        {
            "bufferView" : 2,
            "componentType" : 5126,
            "count" : 13560,
            "max" : [
                1.0,
                1.0,
                1.0
            ],
            "min" : [
                -1.0,
                -1.0,
                -0.999969482421875
            ],
            "type" : "VEC3"
        }
    ],
    "asset" : {
        "generator" : "Khronos Blender glTF 2.0 exporter",
        "version" : "2.0"
    },
    "bufferViews" : [
        {
            "buffer" : 0,
            "byteLength" : 108384,
            "byteOffset" : 0,
            "target" : 34963
        },
        {
            "buffer" : 0,
            "byteLength" : 162720,
            "byteOffset" : 108384,
            "target" : 34962
        },
        {
            "buffer" : 0,
            "byteLength" : 162720,
            "byteOffset" : 271104,
            "target" : 34962
        }
    ],
    "buffers" : [
        {
            "byteLength" : 433824,
            "uri" : "bat14.bin"
        }
    ],
    "meshes" : [
        {
            "name" : "CUCurve.007",
            "primitives" : [
                {
                    "attributes" : {
                        "NORMAL" : 2,
                        "POSITION" : 1
                    },
                    "indices" : 0
                }
            ]
        }
    ],
    "nodes" : [
        {
            "mesh" : 0,
            "name" : "Curve.003"
        }
    ],
    "scene" : 0,
    "scenes" : [
        {
            "name" : "Scene",
            "nodes" : [
                0
            ]
        }
    ]
}
