{
    "accessors" : [
        {
            "bufferView" : 0,
            "componentType" : 5123,
            "count" : 15162,
            "max" : [
                3371
            ],
            "min" : [
                0
            ],
            "type" : "SCALAR"
        },
        {
            "bufferView" : 1,
            "componentType" : 5126,
            "count" : 3372,
            "max" : [
                0.1694042682647705,
                0.009999999776482582,
                0.1663639098405838
            ],
            "min" : [
                -0.16913007199764252,
                -0.009999999776482582,
                -0.15893672406673431
            ],
            "type" : "VEC3"
        },
        {
            "bufferView" : 2,
            "componentType" : 5126,
            "count" : 3372,
            "max" : [
                1.0,
                1.0,
                0.99981689453125
            ],
            "min" : [
                -1.0,
                -1.0,
                -1.0
            ],
            "type" : "VEC3"
        }
    ],
    "asset" : {
        "generator" : "Khronos Blender glTF 2.0 exporter",
        "version" : "2.0"
    },
    "bufferViews" : [
        {
            "buffer" : 0,
            "byteLength" : 30324,
            "byteOffset" : 0,
            "target" : 34963
        },
        {
            "buffer" : 0,
            "byteLength" : 40464,
            "byteOffset" : 30324,
            "target" : 34962
        },
        {
            "buffer" : 0,
            "byteLength" : 40464,
            "byteOffset" : 70788,
            "target" : 34962
        }
    ],
    "buffers" : [
        {
            "byteLength" : 111252,
            "uri" : "bat11.bin"
        }
    ],
    "meshes" : [
        {
            "name" : "CUCurve.001",
            "primitives" : [
                {
                    "attributes" : {
                        "NORMAL" : 2,
                        "POSITION" : 1
                    },
                    "indices" : 0
                }
            ]
        }
    ],
    "nodes" : [
        {
            "mesh" : 0,
            "name" : "Curve"
        }
    ],
    "scene" : 0,
    "scenes" : [
        {
            "name" : "Scene",
            "nodes" : [
                0
            ]
        }
    ]
}
