{
    "accessors" : [
        {
            "bufferView" : 0,
            "componentType" : 5123,
            "count" : 10875,
            "max" : [
                2419
            ],
            "min" : [
                0
            ],
            "type" : "SCALAR"
        },
        {
            "bufferView" : 1,
            "componentType" : 5126,
            "count" : 2420,
            "max" : [
                0.16943086683750153,
                0.009999999776482582,
                0.09101460129022598
            ],
            "min" : [
                -0.169242724776268,
                -0.009999999776482582,
                -0.1194886639714241
            ],
            "type" : "VEC3"
        },
        {
            "bufferView" : 2,
            "componentType" : 5126,
            "count" : 2420,
            "max" : [
                0.9932554364204407,
                1.0,
                0.999908447265625
            ],
            "min" : [
                -1.0,
                -1.0,
                -1.0
            ],
            "type" : "VEC3"
        }
    ],
    "asset" : {
        "generator" : "Khronos Blender glTF 2.0 exporter",
        "version" : "2.0"
    },
    "bufferViews" : [
        {
            "buffer" : 0,
            "byteLength" : 21750,
            "byteOffset" : 0,
            "target" : 34963
        },
        {
            "buffer" : 0,
            "byteLength" : 29040,
            "byteOffset" : 21752,
            "target" : 34962
        },
        {
            "buffer" : 0,
            "byteLength" : 29040,
            "byteOffset" : 50792,
            "target" : 34962
        }
    ],
    "buffers" : [
        {
            "byteLength" : 79832,
            "uri" : "bat13.bin"
        }
    ],
    "meshes" : [
        {
            "name" : "CUCurve.003",
            "primitives" : [
                {
                    "attributes" : {
                        "NORMAL" : 2,
                        "POSITION" : 1
                    },
                    "indices" : 0
                }
            ]
        }
    ],
    "nodes" : [
        {
            "mesh" : 0,
            "name" : "Curve"
        }
    ],
    "scene" : 0,
    "scenes" : [
        {
            "name" : "Scene",
            "nodes" : [
                0
            ]
        }
    ]
}
