{
    "accessors" : [
        {
            "bufferView" : 0,
            "componentType" : 5123,
            "count" : 12300,
            "max" : [
                2735
            ],
            "min" : [
                0
            ],
            "type" : "SCALAR"
        },
        {
            "bufferView" : 1,
            "componentType" : 5126,
            "count" : 2736,
            "max" : [
                0.16906872391700745,
                0.009999999776482582,
                0.09173455089330673
            ],
            "min" : [
                -0.16931982338428497,
                -0.009999999776482582,
                -0.04295288771390915
            ],
            "type" : "VEC3"
        },
        {
            "bufferView" : 2,
            "componentType" : 5126,
            "count" : 2736,
            "max" : [
                1.0,
                1.0,
                1.0
            ],
            "min" : [
                -0.999969482421875,
                -1.0,
                -1.0
            ],
            "type" : "VEC3"
        }
    ],
    "asset" : {
        "generator" : "Khronos Blender glTF 2.0 exporter",
        "version" : "2.0"
    },
    "bufferViews" : [
        {
            "buffer" : 0,
            "byteLength" : 24600,
            "byteOffset" : 0,
            "target" : 34963
        },
        {
            "buffer" : 0,
            "byteLength" : 32832,
            "byteOffset" : 24600,
            "target" : 34962
        },
        {
            "buffer" : 0,
            "byteLength" : 32832,
            "byteOffset" : 57432,
            "target" : 34962
        }
    ],
    "buffers" : [
        {
            "byteLength" : 90264,
            "uri" : "bat19.bin"
        }
    ],
    "meshes" : [
        {
            "name" : "CUCurve.013",
            "primitives" : [
                {
                    "attributes" : {
                        "NORMAL" : 2,
                        "POSITION" : 1
                    },
                    "indices" : 0
                }
            ]
        }
    ],
    "nodes" : [
        {
            "mesh" : 0,
            "name" : "Curve"
        }
    ],
    "scene" : 0,
    "scenes" : [
        {
            "name" : "Scene",
            "nodes" : [
                0
            ]
        }
    ]
}
