{
    "accessors" : [
        {
            "bufferView" : 0,
            "componentType" : 5123,
            "count" : 12534,
            "max" : [
                2787
            ],
            "min" : [
                0
            ],
            "type" : "SCALAR"
        },
        {
            "bufferView" : 1,
            "componentType" : 5126,
            "count" : 2788,
            "max" : [
                0.16921977698802948,
                0.009999999776482582,
                0.19813162088394165
            ],
            "min" : [
                -0.16945664584636688,
                -0.009999999776482582,
                -0.09975636005401611
            ],
            "type" : "VEC3"
        },
        {
            "bufferView" : 2,
            "componentType" : 5126,
            "count" : 2788,
            "max" : [
                1.0,
                1.0,
                0.999847412109375
            ],
            "min" : [
                -1.0,
                -1.0,
                -1.0
            ],
            "type" : "VEC3"
        }
    ],
    "asset" : {
        "generator" : "Khronos Blender glTF 2.0 exporter",
        "version" : "2.0"
    },
    "bufferViews" : [
        {
            "buffer" : 0,
            "byteLength" : 25068,
            "byteOffset" : 0,
            "target" : 34963
        },
        {
            "buffer" : 0,
            "byteLength" : 33456,
            "byteOffset" : 25068,
            "target" : 34962
        },
        {
            "buffer" : 0,
            "byteLength" : 33456,
            "byteOffset" : 58524,
            "target" : 34962
        }
    ],
    "buffers" : [
        {
            "byteLength" : 91980,
            "uri" : "bat23.bin"
        }
    ],
    "meshes" : [
        {
            "name" : "CUCurve.017",
            "primitives" : [
                {
                    "attributes" : {
                        "NORMAL" : 2,
                        "POSITION" : 1
                    },
                    "indices" : 0
                }
            ]
        }
    ],
    "nodes" : [
        {
            "mesh" : 0,
            "name" : "Curve"
        }
    ],
    "scene" : 0,
    "scenes" : [
        {
            "name" : "Scene",
            "nodes" : [
                0
            ]
        }
    ]
}
