{
    "accessors" : [
        {
            "bufferView" : 0,
            "componentType" : 5123,
            "count" : 10605,
            "max" : [
                2359
            ],
            "min" : [
                0
            ],
            "type" : "SCALAR"
        },
        {
            "bufferView" : 1,
            "componentType" : 5126,
            "count" : 2360,
            "max" : [
                0.16923324763774872,
                0.009999999776482582,
                0.09009592980146408
            ],
            "min" : [
                -0.1694403439760208,
                -0.009999999776482582,
                -0.09162051230669022
            ],
            "type" : "VEC3"
        },
        {
            "bufferView" : 2,
            "componentType" : 5126,
            "count" : 2360,
            "max" : [
                0.99993896484375,
                1.0,
                0.999969482421875
            ],
            "min" : [
                -1.0,
                -1.0,
                -1.0
            ],
            "type" : "VEC3"
        }
    ],
    "asset" : {
        "generator" : "Khronos Blender glTF 2.0 exporter",
        "version" : "2.0"
    },
    "bufferViews" : [
        {
            "buffer" : 0,
            "byteLength" : 21210,
            "byteOffset" : 0,
            "target" : 34963
        },
        {
            "buffer" : 0,
            "byteLength" : 28320,
            "byteOffset" : 21212,
            "target" : 34962
        },
        {
            "buffer" : 0,
            "byteLength" : 28320,
            "byteOffset" : 49532,
            "target" : 34962
        }
    ],
    "buffers" : [
        {
            "byteLength" : 77852,
            "uri" : "bat24.bin"
        }
    ],
    "meshes" : [
        {
            "name" : "CUCurve.018",
            "primitives" : [
                {
                    "attributes" : {
                        "NORMAL" : 2,
                        "POSITION" : 1
                    },
                    "indices" : 0
                }
            ]
        }
    ],
    "nodes" : [
        {
            "mesh" : 0,
            "name" : "Curve"
        }
    ],
    "scene" : 0,
    "scenes" : [
        {
            "name" : "Scene",
            "nodes" : [
                0
            ]
        }
    ]
}
