{
    "accessors" : [
        {
            "bufferView" : 0,
            "componentType" : 5123,
            "count" : 19230,
            "max" : [
                4275
            ],
            "min" : [
                0
            ],
            "type" : "SCALAR"
        },
        {
            "bufferView" : 1,
            "componentType" : 5126,
            "count" : 4276,
            "max" : [
                0.11279503256082535,
                0.009999999776482582,
                0.1374046951532364
            ],
            "min" : [
                -0.11295296251773834,
                -0.009999999776482582,
                -0.11005698144435883
            ],
            "type" : "VEC3"
        },
        {
            "bufferView" : 2,
            "componentType" : 5126,
            "count" : 4276,
            "max" : [
                0.999969482421875,
                1.0,
                0.99993896484375
            ],
            "min" : [
                -0.999969482421875,
                -1.0,
                -0.999969482421875
            ],
            "type" : "VEC3"
        }
    ],
    "asset" : {
        "generator" : "Khronos Blender glTF 2.0 exporter",
        "version" : "2.0"
    },
    "bufferViews" : [
        {
            "buffer" : 0,
            "byteLength" : 38460,
            "byteOffset" : 0,
            "target" : 34963
        },
        {
            "buffer" : 0,
            "byteLength" : 51312,
            "byteOffset" : 38460,
            "target" : 34962
        },
        {
            "buffer" : 0,
            "byteLength" : 51312,
            "byteOffset" : 89772,
            "target" : 34962
        }
    ],
    "buffers" : [
        {
            "byteLength" : 141084,
            "uri" : "bat2.bin"
        }
    ],
    "meshes" : [
        {
            "name" : "CUCurve.004",
            "primitives" : [
                {
                    "attributes" : {
                        "NORMAL" : 2,
                        "POSITION" : 1
                    },
                    "indices" : 0
                }
            ]
        }
    ],
    "nodes" : [
        {
            "mesh" : 0,
            "name" : "Curve"
        }
    ],
    "scene" : 0,
    "scenes" : [
        {
            "name" : "Scene",
            "nodes" : [
                0
            ]
        }
    ]
}
