{
    "accessors" : [
        {
            "bufferView" : 0,
            "componentType" : 5123,
            "count" : 14280,
            "max" : [
                3175
            ],
            "min" : [
                0
            ],
            "type" : "SCALAR"
        },
        {
            "bufferView" : 1,
            "componentType" : 5126,
            "count" : 3176,
            "max" : [
                0.16967104375362396,
                0.009999999776482582,
                0.08108236640691757
            ],
            "min" : [
                -0.1690138429403305,
                -0.009999999776482582,
                -0.09680787473917007
            ],
            "type" : "VEC3"
        },
        {
            "bufferView" : 2,
            "componentType" : 5126,
            "count" : 3176,
            "max" : [
                1.0,
                1.0,
                0.999908447265625
            ],
            "min" : [
                -1.0,
                -1.0,
                -1.0
            ],
            "type" : "VEC3"
        }
    ],
    "asset" : {
        "generator" : "Khronos Blender glTF 2.0 exporter",
        "version" : "2.0"
    },
    "bufferViews" : [
        {
            "buffer" : 0,
            "byteLength" : 28560,
            "byteOffset" : 0,
            "target" : 34963
        },
        {
            "buffer" : 0,
            "byteLength" : 38112,
            "byteOffset" : 28560,
            "target" : 34962
        },
        {
            "buffer" : 0,
            "byteLength" : 38112,
            "byteOffset" : 66672,
            "target" : 34962
        }
    ],
    "buffers" : [
        {
            "byteLength" : 104784,
            "uri" : "bat21.bin"
        }
    ],
    "meshes" : [
        {
            "name" : "CUCurve.015",
            "primitives" : [
                {
                    "attributes" : {
                        "NORMAL" : 2,
                        "POSITION" : 1
                    },
                    "indices" : 0
                }
            ]
        }
    ],
    "nodes" : [
        {
            "mesh" : 0,
            "name" : "Curve"
        }
    ],
    "scene" : 0,
    "scenes" : [
        {
            "name" : "Scene",
            "nodes" : [
                0
            ]
        }
    ]
}
