{
    "accessors" : [
        {
            "bufferView" : 0,
            "componentType" : 5123,
            "count" : 12747,
            "max" : [
                2835
            ],
            "min" : [
                0
            ],
            "type" : "SCALAR"
        },
        {
            "bufferView" : 1,
            "componentType" : 5126,
            "count" : 2836,
            "max" : [
                0.16944767534732819,
                0.009999999776482582,
                0.08357806503772736
            ],
            "min" : [
                -0.16922591626644135,
                -0.009999999776482582,
                -0.06456033885478973
            ],
            "type" : "VEC3"
        },
        {
            "bufferView" : 2,
            "componentType" : 5126,
            "count" : 2836,
            "max" : [
                0.99932861328125,
                1.0,
                1.0
            ],
            "min" : [
                -1.0,
                -1.0,
                -1.0
            ],
            "type" : "VEC3"
        }
    ],
    "asset" : {
        "generator" : "Khronos Blender glTF 2.0 exporter",
        "version" : "2.0"
    },
    "bufferViews" : [
        {
            "buffer" : 0,
            "byteLength" : 25494,
            "byteOffset" : 0,
            "target" : 34963
        },
        {
            "buffer" : 0,
            "byteLength" : 34032,
            "byteOffset" : 25496,
            "target" : 34962
        },
        {
            "buffer" : 0,
            "byteLength" : 34032,
            "byteOffset" : 59528,
            "target" : 34962
        }
    ],
    "buffers" : [
        {
            "byteLength" : 93560,
            "uri" : "bat28.bin"
        }
    ],
    "meshes" : [
        {
            "name" : "CUCurve.022",
            "primitives" : [
                {
                    "attributes" : {
                        "NORMAL" : 2,
                        "POSITION" : 1
                    },
                    "indices" : 0
                }
            ]
        }
    ],
    "nodes" : [
        {
            "mesh" : 0,
            "name" : "Curve"
        }
    ],
    "scene" : 0,
    "scenes" : [
        {
            "name" : "Scene",
            "nodes" : [
                0
            ]
        }
    ]
}
