{
    "accessors" : [
        {
            "bufferView" : 0,
            "componentType" : 5123,
            "count" : 12102,
            "max" : [
                2691
            ],
            "min" : [
                0
            ],
            "type" : "SCALAR"
        },
        {
            "bufferView" : 1,
            "componentType" : 5126,
            "count" : 2692,
            "max" : [
                0.16923566162586212,
                0.009999999776482582,
                0.11345870047807693
            ],
            "min" : [
                -0.16944922506809235,
                -0.009999999776482582,
                -0.07091577351093292
            ],
            "type" : "VEC3"
        },
        {
            "bufferView" : 2,
            "componentType" : 5126,
            "count" : 2692,
            "max" : [
                0.999969482421875,
                1.0,
                0.999969482421875
            ],
            "min" : [
                -0.9998779296875,
                -1.0,
                -0.999969482421875
            ],
            "type" : "VEC3"
        }
    ],
    "asset" : {
        "generator" : "Khronos Blender glTF 2.0 exporter",
        "version" : "2.0"
    },
    "bufferViews" : [
        {
            "buffer" : 0,
            "byteLength" : 24204,
            "byteOffset" : 0,
            "target" : 34963
        },
        {
            "buffer" : 0,
            "byteLength" : 32304,
            "byteOffset" : 24204,
            "target" : 34962
        },
        {
            "buffer" : 0,
            "byteLength" : 32304,
            "byteOffset" : 56508,
            "target" : 34962
        }
    ],
    "buffers" : [
        {
            "byteLength" : 88812,
            "uri" : "bat27.bin"
        }
    ],
    "meshes" : [
        {
            "name" : "CUCurve.021",
            "primitives" : [
                {
                    "attributes" : {
                        "NORMAL" : 2,
                        "POSITION" : 1
                    },
                    "indices" : 0
                }
            ]
        }
    ],
    "nodes" : [
        {
            "mesh" : 0,
            "name" : "Curve"
        }
    ],
    "scene" : 0,
    "scenes" : [
        {
            "name" : "Scene",
            "nodes" : [
                0
            ]
        }
    ]
}
