{
    "accessors" : [
        {
            "bufferView" : 0,
            "componentType" : 5123,
            "count" : 13182,
            "max" : [
                2931
            ],
            "min" : [
                0
            ],
            "type" : "SCALAR"
        },
        {
            "bufferView" : 1,
            "componentType" : 5126,
            "count" : 2932,
            "max" : [
                0.1129746288061142,
                0.009999999776482582,
                0.04951924830675125
            ],
            "min" : [
                -0.11280776560306549,
                -0.009999999776482582,
                -0.07350616902112961
            ],
            "type" : "VEC3"
        },
        {
            "bufferView" : 2,
            "componentType" : 5126,
            "count" : 2932,
            "max" : [
                0.999969482421875,
                1.0,
                0.999969482421875
            ],
            "min" : [
                -0.99993896484375,
                -1.0,
                -0.999969482421875
            ],
            "type" : "VEC3"
        }
    ],
    "asset" : {
        "generator" : "Khronos Blender glTF 2.0 exporter",
        "version" : "2.0"
    },
    "bufferViews" : [
        {
            "buffer" : 0,
            "byteLength" : 26364,
            "byteOffset" : 0,
            "target" : 34963
        },
        {
            "buffer" : 0,
            "byteLength" : 35184,
            "byteOffset" : 26364,
            "target" : 34962
        },
        {
            "buffer" : 0,
            "byteLength" : 35184,
            "byteOffset" : 61548,
            "target" : 34962
        }
    ],
    "buffers" : [
        {
            "byteLength" : 96732,
            "uri" : "bat4.bin"
        }
    ],
    "meshes" : [
        {
            "name" : "CUCurve.006",
            "primitives" : [
                {
                    "attributes" : {
                        "NORMAL" : 2,
                        "POSITION" : 1
                    },
                    "indices" : 0
                }
            ]
        }
    ],
    "nodes" : [
        {
            "mesh" : 0,
            "name" : "Curve"
        }
    ],
    "scene" : 0,
    "scenes" : [
        {
            "name" : "Scene",
            "nodes" : [
                0
            ]
        }
    ]
}
