{
    "accessors" : [
        {
            "bufferView" : 0,
            "componentType" : 5123,
            "count" : 15558,
            "max" : [
                3459
            ],
            "min" : [
                0
            ],
            "type" : "SCALAR"
        },
        {
            "bufferView" : 1,
            "componentType" : 5126,
            "count" : 3460,
            "max" : [
                0.11279896646738052,
                0.009999999776482582,
                0.07673997431993484
            ],
            "min" : [
                -0.11291110515594482,
                -0.009999999776482582,
                -0.050574399530887604
            ],
            "type" : "VEC3"
        },
        {
            "bufferView" : 2,
            "componentType" : 5126,
            "count" : 3460,
            "max" : [
                0.999969482421875,
                1.0,
                0.999969482421875
            ],
            "min" : [
                -1.0,
                -1.0,
                -1.0
            ],
            "type" : "VEC3"
        }
    ],
    "asset" : {
        "generator" : "Khronos Blender glTF 2.0 exporter",
        "version" : "2.0"
    },
    "bufferViews" : [
        {
            "buffer" : 0,
            "byteLength" : 31116,
            "byteOffset" : 0,
            "target" : 34963
        },
        {
            "buffer" : 0,
            "byteLength" : 41520,
            "byteOffset" : 31116,
            "target" : 34962
        },
        {
            "buffer" : 0,
            "byteLength" : 41520,
            "byteOffset" : 72636,
            "target" : 34962
        }
    ],
    "buffers" : [
        {
            "byteLength" : 114156,
            "uri" : "bat5.bin"
        }
    ],
    "meshes" : [
        {
            "name" : "CUCurve.007",
            "primitives" : [
                {
                    "attributes" : {
                        "NORMAL" : 2,
                        "POSITION" : 1
                    },
                    "indices" : 0
                }
            ]
        }
    ],
    "nodes" : [
        {
            "mesh" : 0,
            "name" : "Curve"
        }
    ],
    "scene" : 0,
    "scenes" : [
        {
            "name" : "Scene",
            "nodes" : [
                0
            ]
        }
    ]
}
