{
    "accessors" : [
        {
            "bufferView" : 0,
            "componentType" : 5123,
            "count" : 9096,
            "max" : [
                2023
            ],
            "min" : [
                0
            ],
            "type" : "SCALAR"
        },
        {
            "bufferView" : 1,
            "componentType" : 5126,
            "count" : 2024,
            "max" : [
                0.11310400813817978,
                0.009999999776482582,
                0.08680808544158936
            ],
            "min" : [
                -0.1126868724822998,
                -0.009999999776482582,
                -0.052611324936151505
            ],
            "type" : "VEC3"
        },
        {
            "bufferView" : 2,
            "componentType" : 5126,
            "count" : 2024,
            "max" : [
                0.999969482421875,
                1.0,
                0.99993896484375
            ],
            "min" : [
                -0.9986571669578552,
                -1.0,
                -1.0
            ],
            "type" : "VEC3"
        }
    ],
    "asset" : {
        "generator" : "Khronos Blender glTF 2.0 exporter",
        "version" : "2.0"
    },
    "bufferViews" : [
        {
            "buffer" : 0,
            "byteLength" : 18192,
            "byteOffset" : 0,
            "target" : 34963
        },
        {
            "buffer" : 0,
            "byteLength" : 24288,
            "byteOffset" : 18192,
            "target" : 34962
        },
        {
            "buffer" : 0,
            "byteLength" : 24288,
            "byteOffset" : 42480,
            "target" : 34962
        }
    ],
    "buffers" : [
        {
            "byteLength" : 66768,
            "uri" : "bat6.bin"
        }
    ],
    "meshes" : [
        {
            "name" : "CUCurve.008",
            "primitives" : [
                {
                    "attributes" : {
                        "NORMAL" : 2,
                        "POSITION" : 1
                    },
                    "indices" : 0
                }
            ]
        }
    ],
    "nodes" : [
        {
            "mesh" : 0,
            "name" : "Curve"
        }
    ],
    "scene" : 0,
    "scenes" : [
        {
            "name" : "Scene",
            "nodes" : [
                0
            ]
        }
    ]
}
