{
    "accessors" : [
        {
            "bufferView" : 0,
            "componentType" : 5123,
            "count" : 16242,
            "max" : [
                3611
            ],
            "min" : [
                0
            ],
            "type" : "SCALAR"
        },
        {
            "bufferView" : 1,
            "componentType" : 5126,
            "count" : 3612,
            "max" : [
                0.16947026550769806,
                0.010317018255591393,
                0.16310983896255493
            ],
            "min" : [
                -0.1691891998052597,
                -0.009999999776482582,
                -0.157918781042099
            ],
            "type" : "VEC3"
        },
        {
            "bufferView" : 2,
            "componentType" : 5126,
            "count" : 3612,
            "max" : [
                1.0,
                1.0,
                1.0
            ],
            "min" : [
                -1.0,
                -1.0,
                -1.0
            ],
            "type" : "VEC3"
        }
    ],
    "asset" : {
        "generator" : "Khronos Blender glTF 2.0 exporter",
        "version" : "2.0"
    },
    "bufferViews" : [
        {
            "buffer" : 0,
            "byteLength" : 32484,
            "byteOffset" : 0,
            "target" : 34963
        },
        {
            "buffer" : 0,
            "byteLength" : 43344,
            "byteOffset" : 32484,
            "target" : 34962
        },
        {
            "buffer" : 0,
            "byteLength" : 43344,
            "byteOffset" : 75828,
            "target" : 34962
        }
    ],
    "buffers" : [
        {
            "byteLength" : 119172,
            "uri" : "bat7.bin"
        }
    ],
    "meshes" : [
        {
            "name" : "CUCurve.009",
            "primitives" : [
                {
                    "attributes" : {
                        "NORMAL" : 2,
                        "POSITION" : 1
                    },
                    "indices" : 0
                }
            ]
        }
    ],
    "nodes" : [
        {
            "mesh" : 0,
            "name" : "Curve"
        }
    ],
    "scene" : 0,
    "scenes" : [
        {
            "name" : "Scene",
            "nodes" : [
                0
            ]
        }
    ]
}
