{
    "accessors" : [
        {
            "bufferView" : 0,
            "componentType" : 5123,
            "count" : 18600,
            "max" : [
                4135
            ],
            "min" : [
                0
            ],
            "type" : "SCALAR"
        },
        {
            "bufferView" : 1,
            "componentType" : 5126,
            "count" : 4136,
            "max" : [
                0.144500732421875,
                0.009999999776482582,
                0.10214071720838547
            ],
            "min" : [
                -0.144500732421875,
                -0.009999999776482582,
                -0.10214071720838547
            ],
            "type" : "VEC3"
        },
        {
            "bufferView" : 2,
            "componentType" : 5126,
            "count" : 4136,
            "max" : [
                1.0,
                1.0,
                1.0
            ],
            "min" : [
                -1.0,
                -1.0,
                -1.0
            ],
            "type" : "VEC3"
        }
    ],
    "asset" : {
        "generator" : "Khronos Blender glTF 2.0 exporter",
        "version" : "2.0"
    },
    "bufferViews" : [
        {
            "buffer" : 0,
            "byteLength" : 37200,
            "byteOffset" : 0,
            "target" : 34963
        },
        {
            "buffer" : 0,
            "byteLength" : 49632,
            "byteOffset" : 37200,
            "target" : 34962
        },
        {
            "buffer" : 0,
            "byteLength" : 49632,
            "byteOffset" : 86832,
            "target" : 34962
        }
    ],
    "buffers" : [
        {
            "byteLength" : 136464,
            "uri" : "bat8.bin"
        }
    ],
    "meshes" : [
        {
            "name" : "CUCurve.010",
            "primitives" : [
                {
                    "attributes" : {
                        "NORMAL" : 2,
                        "POSITION" : 1
                    },
                    "indices" : 0
                }
            ]
        }
    ],
    "nodes" : [
        {
            "mesh" : 0,
            "name" : "Curve"
        }
    ],
    "scene" : 0,
    "scenes" : [
        {
            "name" : "Scene",
            "nodes" : [
                0
            ]
        }
    ]
}
